<?xml version="1.0" encoding="utf-8"?>
<!-- Generator: Adobe Illustrator 16.0.0, SVG Export Plug-In . SVG Version: 6.00 Build 0)  -->
<!DOCTYPE svg PUBLIC "-//W3C//DTD SVG 1.1//EN" "http://www.w3.org/Graphics/SVG/1.1/DTD/svg11.dtd">
<svg version="1.1" id="Layer_1" xmlns="http://www.w3.org/2000/svg" xmlns:xlink="http://www.w3.org/1999/xlink" x="0px" y="0px"
	 width="537.201px" height="170.064px" viewBox="0 0 537.201 170.064" enable-background="new 0 0 537.201 170.064"
	 xml:space="preserve">
<path fill="#FFFFFF" d="M56.434,73.696c-11.271,0-21.707,4.568-29.371,12.861c-6.817,7.392-10.574,17.011-10.574,27.079
	c0,22.022,17.917,39.94,39.945,39.94c22.018,0,39.935-17.918,39.935-39.94S78.452,73.696,56.434,73.696 M56.434,170.064
	C25.313,170.064,0,144.751,0,113.636c0-14.224,5.314-27.814,14.954-38.259c10.66-11.551,25.786-18.169,41.48-18.169
	c31.11,0,56.424,25.313,56.424,56.428S87.544,170.064,56.434,170.064"/>
<rect fill="#FFFFFF" width="16.489" height="165.911"/>
<path fill="#FFFFFF" d="M310.747,73.696c-22.028,0-39.944,17.917-39.944,39.94s17.916,39.94,39.944,39.94
	c22.019,0,39.935-17.918,39.935-39.94c0-10.068-3.758-19.688-10.573-27.085C332.561,78.382,321.858,73.696,310.747,73.696
	 M310.747,170.064c-31.121,0-56.434-25.313-56.434-56.429s25.312-56.428,56.434-56.428c15.706,0,30.82,6.624,41.47,18.164
	c9.641,10.45,14.954,24.041,14.954,38.265C367.171,144.751,341.858,170.064,310.747,170.064"/>
<rect x="350.682" fill="#FFFFFF" width="16.489" height="165.911"/>
<rect x="136.92" y="58.425" fill="#FFFFFF" width="16.489" height="107.486"/>
<rect x="190" y="58.425" fill="#FFFFFF" width="16.489" height="107.486"/>
<path fill="#FFFFFF" d="M156.193,27.858c0,6.089-4.937,11.026-11.026,11.026c-6.089,0-11.025-4.937-11.025-11.026
	c0-6.09,4.936-11.026,11.025-11.026C151.256,16.832,156.193,21.768,156.193,27.858"/>
<path fill="#FFFFFF" d="M206.489,113.636H190c0-31.115,25.313-56.428,56.434-56.428v16.489
	C224.406,73.696,206.489,91.613,206.489,113.636"/>
<rect x="448.789" y="88.268" transform="matrix(0.3823 -0.924 0.924 0.3823 202.3463 487.3817)" fill="#FFFFFF" width="33.845" height="8.155"/>
<rect x="478.324" y="88.247" transform="matrix(-0.3831 -0.9237 0.9237 -0.3831 599.6953 585.1571)" fill="#FFFFFF" width="33.844" height="8.156"/>
<rect x="499.193" y="67.349" transform="matrix(-0.924 -0.3823 0.3823 -0.924 965.7277 334.7264)" fill="#FFFFFF" width="33.845" height="8.157"/>
<rect x="499.174" y="37.814" transform="matrix(-0.9237 0.3831 -0.3831 -0.9237 1008.8706 -117.1188)" fill="#FFFFFF" width="33.845" height="8.157"/>
<rect x="478.275" y="16.944" transform="matrix(-0.3823 0.924 -0.924 -0.3823 703.9261 -428.5279)" fill="#FFFFFF" width="33.846" height="8.158"/>
<rect x="448.741" y="16.964" transform="matrix(0.3831 0.9237 -0.9237 0.3831 306.7238 -417.1623)" fill="#FFFFFF" width="33.845" height="8.157"/>
<rect x="427.872" y="37.863" transform="matrix(0.924 0.3823 -0.3823 0.924 49.8152 -166.8474)" fill="#FFFFFF" width="33.845" height="8.156"/>
<rect x="427.892" y="67.397" transform="matrix(0.9237 -0.3831 0.3831 0.9237 6.5499 175.8436)" fill="#FFFFFF" width="33.845" height="8.157"/>
<path fill="#FFFFFF" d="M446.07,88.268c-0.655-0.271-1.352-0.407-2.048-0.407c-0.592,0-1.184,0.099-1.752,0.296
	c-1.351,0.47-2.438,1.437-3.062,2.724c-0.624,1.286-0.711,2.738-0.241,4.091c0.47,1.349,1.435,2.438,2.727,3.063
	c1.298,0.619,2.752,0.704,4.084,0.239c1.353-0.469,2.44-1.435,3.065-2.722c0.625-1.289,0.71-2.743,0.239-4.093
	C448.584,90.017,447.485,88.854,446.07,88.268"/>
<path fill="#FFFFFF" d="M482.757,103.451c-0.098-0.048-0.195-0.091-0.299-0.136c-0.651-0.268-1.343-0.403-2.035-0.403
	c-0.594,0-1.189,0.099-1.761,0.297c-1.354,0.47-2.44,1.438-3.059,2.722c-0.624,1.284-0.71,2.737-0.24,4.09
	c0.467,1.354,1.434,2.442,2.715,3.062c1.26,0.632,2.693,0.728,4.041,0.271c1.377-0.468,2.484-1.444,3.118-2.752
	c0.622-1.285,0.709-2.737,0.241-4.089C485.008,105.16,484.041,104.073,482.757,103.451"/>
<path fill="#FFFFFF" d="M518.84,88.231c-0.655-0.272-1.352-0.408-2.048-0.408c-0.593,0-1.185,0.099-1.755,0.297
	c-2.786,0.969-4.265,4.025-3.3,6.814c0.469,1.351,1.437,2.438,2.721,3.059c1.273,0.632,2.727,0.719,4.093,0.242
	c1.352-0.47,2.44-1.436,3.063-2.723c0.624-1.286,0.709-2.74,0.239-4.092C521.354,89.981,520.256,88.817,518.84,88.231"/>
<path fill="#FFFFFF" d="M530.092,51.726c-1.353,0.47-2.44,1.437-3.061,2.724c-0.625,1.286-0.71,2.739-0.242,4.092
	c0.47,1.351,1.438,2.439,2.722,3.059c1.265,0.624,2.709,0.709,4.065,0.247c1.369-0.469,2.466-1.438,3.092-2.729
	c1.284-2.654,0.171-5.862-2.482-7.15c-0.099-0.049-0.2-0.094-0.298-0.133c-0.651-0.271-1.344-0.405-2.039-0.405
	C531.256,51.43,530.662,51.529,530.092,51.726"/>
<path fill="#FFFFFF" d="M514.423,25.227c1.29,0.62,2.743,0.707,4.092,0.239c1.349-0.469,2.436-1.435,3.06-2.723
	c0.624-1.291,0.709-2.744,0.241-4.093c-0.5-1.441-1.599-2.6-3.012-3.186c-0.656-0.272-1.353-0.407-2.05-0.407
	c-0.592,0-1.185,0.098-1.754,0.293c-2.787,0.97-4.268,4.026-3.3,6.813C512.17,23.514,513.136,24.603,514.423,25.227"/>
<path fill="#FFFFFF" d="M478.028,10.172c1.261,0.629,2.694,0.726,4.046,0.267c1.372-0.466,2.477-1.444,3.107-2.747
	c0.627-1.288,0.713-2.74,0.242-4.091c-0.469-1.352-1.436-2.44-2.727-3.065c-0.097-0.046-0.195-0.09-0.293-0.131
	C481.753,0.135,481.061,0,480.366,0c-0.592,0-1.187,0.099-1.757,0.297c-1.351,0.469-2.439,1.438-3.062,2.726
	C474.261,5.676,475.374,8.882,478.028,10.172"/>
<path fill="#FFFFFF" d="M445.746,25.502c1.349-0.467,2.434-1.435,3.059-2.723c0.624-1.29,0.71-2.742,0.242-4.091
	c-0.501-1.44-1.601-2.602-3.016-3.188c-0.654-0.272-1.351-0.409-2.048-0.409c-0.591,0-1.183,0.099-1.751,0.295
	c-1.351,0.468-2.439,1.436-3.061,2.724c-0.625,1.285-0.71,2.739-0.241,4.092C439.9,24.991,442.953,26.473,445.746,25.502"/>
<path fill="#FFFFFF" d="M423.879,58.594c0.469,1.354,1.437,2.44,2.723,3.061c1.283,0.628,2.737,0.71,4.09,0.242
	c1.352-0.47,2.438-1.438,3.062-2.725c0.625-1.286,0.709-2.739,0.239-4.088c-0.467-1.353-1.433-2.44-2.72-3.062
	c-0.098-0.047-0.197-0.093-0.297-0.134c-0.653-0.27-1.346-0.405-2.039-0.405c-0.595,0-1.189,0.099-1.761,0.297
	c-1.349,0.471-2.435,1.438-3.058,2.721l-0.062,0.133C423.489,55.888,423.425,57.289,423.879,58.594"/>
</svg>
