<?xml version="1.0" standalone="no"?>
<!DOCTYPE svg PUBLIC "-//W3C//DTD SVG 20010904//EN"
 "http://www.w3.org/TR/2001/REC-SVG-20010904/DTD/svg10.dtd">
<svg version="1.0" xmlns="http://www.w3.org/2000/svg"
 width="256.000000pt" height="256.000000pt" viewBox="0 0 256.000000 256.000000"
 preserveAspectRatio="xMidYMid meet">
<metadata>
Created by potrace 1.11, written by Peter Selinger 2001-2013
</metadata>
<g transform="translate(0.000000,256.000000) scale(0.100000,-0.100000)"
fill="#000000" stroke="none">
<path d="M740 1315 l0 -945 125 0 125 0 0 81 0 81 60 -55 c101 -94 207 -131
375 -131 373 0 636 319 595 722 -25 246 -171 446 -386 528 -54 21 -93 28 -177
32 -177 8 -297 -28 -404 -123 l-53 -47 0 401 0 401 -130 0 -130 0 0 -945z
m802 42 c109 -53 188 -168 207 -300 40 -283 -174 -513 -435 -468 -83 15 -133
40 -195 98 -92 86 -132 222 -111 374 18 124 65 205 157 269 69 48 120 60 225
57 80 -2 105 -7 152 -30z"/>
</g>
</svg>
